<svg version="1.2" xmlns="http://www.w3.org/2000/svg" viewBox="0 0 372 125" width="372" height="125"><style>.s0{fill:#a0aab4}.s1{fill:#b1d78a}.s2{fill:#46a8c6}.s3{fill:#00416a}.s4{fill:#0f7bb6}</style><path class="s0" d="m170 125h-170v-12c0 0-2 0 12 0c14 0 59.2-13.7 91-26c31.8-12.3 67-34 67-34z" /><path class="s1" d="m56 116c0 0 9-8.1 24-14c15-5.9 38.9-12.7 65-30c26.1-17.3 56-47 56-47v91z" /><path class="s2" d="m98 106c0 0 39.7-18.8 62-37c22.3-18.2 36.3-30.8 44-51c7.7-20.2 6-17 6-17h21v105z" /><path class="s3" d="m91 111l61-19l43-31l18-19l27-41h132v124h-323z" /><path class="s4" d="m213 42c0 0-8.4 21-34 40c-25.6 19-64.9 29.2-85 33c-20.1 3.8-34 10-34 10h-26c0 0 9.2-5.9 30-11c20.8-5.1 54.2-9.3 93-32c38.8-22.7 56-40 56-40z" /><path class="s4" d="m251 1l-38 41c0 0 3.3-5 8-16c4.7-11 7-25 7-25z" /></svg>