<svg version="1.2" xmlns="http://www.w3.org/2000/svg" viewBox="0 0 202 95" width="202" height="95"><style>.s0{fill:#0f7bb6}.s1{fill:#b1d78a}.s2{fill:#46a8c6}.s3{fill:#00416a}.s4{fill:#a0aab4}</style><path class="s0" d="m40 38l44 22h-84v-49z" /><path class="s1" d="m0 15v-15c0 0 18.6 15.7 51 31c32.4 15.3 101 29 101 29h-53l-58-22z" /><path class="s2" d="m142 60h-65l-36-22z" /><path class="s2" d="m18 19c8.6 8.2 23 19 23 19l-41-18v-20c0 0 9.4 10.8 18 19z" /><path class="s3" d="m0 25c0 0 16 12 30 19c14 7 38 16 38 16h-68z" /><path class="s4" d="m0 41c0 0 26.8 19 81 19c54.2 0 120 0 120 0v35h-90h-111z" /></svg>