<svg version="1.2" xmlns="http://www.w3.org/2000/svg" viewBox="0 0 1500 525" width="1500" height="525"><defs><linearGradient id="P" gradientUnits="userSpaceOnUse"/><linearGradient id="g1" x1="867.9" y1="254" x2="716.1" y2="254" href="#P"><stop stop-color="#05aee9"/><stop offset=".1" stop-color="#00a9e0"/><stop offset=".2" stop-color="#07a3dc"/><stop offset=".3" stop-color="#089dd5"/><stop offset=".4" stop-color="#0a92cc"/><stop offset=".5" stop-color="#0f87c3"/><stop offset=".6" stop-color="#127cb8"/><stop offset=".7" stop-color="#0e70ad"/><stop offset=".8" stop-color="#0f63a3"/><stop offset=".9" stop-color="#135393"/><stop offset="1" stop-color="#184485"/></linearGradient><linearGradient id="g2" x1="838.9" y1="214.5" x2="687.1" y2="214.5" href="#P"><stop stop-color="#05aee9"/><stop offset=".1" stop-color="#00a9e0"/><stop offset=".2" stop-color="#07a3dc"/><stop offset=".3" stop-color="#089dd5"/><stop offset=".4" stop-color="#0a92cc"/><stop offset=".5" stop-color="#0f87c3"/><stop offset=".6" stop-color="#127cb8"/><stop offset=".7" stop-color="#0e70ad"/><stop offset=".8" stop-color="#0f63a3"/><stop offset=".9" stop-color="#135393"/><stop offset="1" stop-color="#184485"/></linearGradient><linearGradient id="g3" x1="753.9" y1="95.5" x2="602.1" y2="95.5" href="#P"><stop stop-color="#05aee9"/><stop offset=".1" stop-color="#00a9e0"/><stop offset=".2" stop-color="#07a3dc"/><stop offset=".3" stop-color="#089dd5"/><stop offset=".4" stop-color="#0a92cc"/><stop offset=".5" stop-color="#0f87c3"/><stop offset=".6" stop-color="#127cb8"/><stop offset=".7" stop-color="#0e70ad"/><stop offset=".8" stop-color="#0f63a3"/><stop offset=".9" stop-color="#135393"/><stop offset="1" stop-color="#184485"/></linearGradient><linearGradient id="g4" x1="724.9" y1="56.5" x2="573.1" y2="56.5" href="#P"><stop stop-color="#05aee9"/><stop offset=".1" stop-color="#00a9e0"/><stop offset=".2" stop-color="#07a3dc"/><stop offset=".3" stop-color="#089dd5"/><stop offset=".4" stop-color="#0a92cc"/><stop offset=".5" stop-color="#0f87c3"/><stop offset=".6" stop-color="#127cb8"/><stop offset=".7" stop-color="#0e70ad"/><stop offset=".8" stop-color="#0f63a3"/><stop offset=".9" stop-color="#135393"/><stop offset="1" stop-color="#184485"/></linearGradient><linearGradient id="g5" x1="695.9" y1="10.5" x2="544.1" y2="10.5" href="#P"><stop stop-color="#05aee9"/><stop offset=".1" stop-color="#00a9e0"/><stop offset=".2" stop-color="#07a3dc"/><stop offset=".3" stop-color="#089dd5"/><stop offset=".4" stop-color="#0a92cc"/><stop offset=".5" stop-color="#0f87c3"/><stop offset=".6" stop-color="#127cb8"/><stop offset=".7" stop-color="#0e70ad"/><stop offset=".8" stop-color="#0f63a3"/><stop offset=".9" stop-color="#135393"/><stop offset="1" stop-color="#184485"/></linearGradient><linearGradient id="g6" x1="658.1" y1="174.5" x2="809.9" y2="174.5" href="#P"><stop stop-color="#05aee9"/><stop offset=".1" stop-color="#00a9e0"/><stop offset=".2" stop-color="#07a3dc"/><stop offset=".3" stop-color="#089dd5"/><stop offset=".4" stop-color="#0a92cc"/><stop offset=".5" stop-color="#0f87c3"/><stop offset=".6" stop-color="#127cb8"/><stop offset=".7" stop-color="#0e70ad"/><stop offset=".8" stop-color="#0f63a3"/><stop offset=".9" stop-color="#135393"/><stop offset="1" stop-color="#184485"/></linearGradient><linearGradient id="g7" x1="630.1" y1="135.5" x2="781.9" y2="135.5" href="#P"><stop stop-color="#05aee9"/><stop offset=".1" stop-color="#00a9e0"/><stop offset=".2" stop-color="#07a3dc"/><stop offset=".3" stop-color="#089dd5"/><stop offset=".4" stop-color="#0a92cc"/><stop offset=".5" stop-color="#0f87c3"/><stop offset=".6" stop-color="#127cb8"/><stop offset=".7" stop-color="#0e70ad"/><stop offset=".8" stop-color="#0f63a3"/><stop offset=".9" stop-color="#135393"/><stop offset="1" stop-color="#184485"/></linearGradient><linearGradient id="g8" x1="559.1" y1="27.5" x2="710.9" y2="27.5" href="#P"><stop stop-color="#05aee9"/><stop offset=".1" stop-color="#00a9e0"/><stop offset=".2" stop-color="#07a3dc"/><stop offset=".3" stop-color="#089dd5"/><stop offset=".4" stop-color="#0a92cc"/><stop offset=".5" stop-color="#0f87c3"/><stop offset=".6" stop-color="#127cb8"/><stop offset=".7" stop-color="#0e70ad"/><stop offset=".8" stop-color="#0f63a3"/><stop offset=".9" stop-color="#135393"/><stop offset="1" stop-color="#184485"/></linearGradient><linearGradient id="g9" x1="719.1" y1="251" x2="870.9" y2="251" href="#P"><stop stop-color="#05aee9"/><stop offset=".1" stop-color="#00a9e0"/><stop offset=".2" stop-color="#07a3dc"/><stop offset=".3" stop-color="#089dd5"/><stop offset=".4" stop-color="#0a92cc"/><stop offset=".5" stop-color="#0f87c3"/><stop offset=".6" stop-color="#127cb8"/><stop offset=".7" stop-color="#0e70ad"/><stop offset=".8" stop-color="#0f63a3"/><stop offset=".9" stop-color="#135393"/><stop offset="1" stop-color="#184485"/></linearGradient><linearGradient id="g10" x1="690.1" y1="212.5" x2="841.9" y2="212.5" href="#P"><stop stop-color="#05aee9"/><stop offset=".1" stop-color="#00a9e0"/><stop offset=".2" stop-color="#07a3dc"/><stop offset=".3" stop-color="#089dd5"/><stop offset=".4" stop-color="#0a92cc"/><stop offset=".5" stop-color="#0f87c3"/><stop offset=".6" stop-color="#127cb8"/><stop offset=".7" stop-color="#0e70ad"/><stop offset=".8" stop-color="#0f63a3"/><stop offset=".9" stop-color="#135393"/><stop offset="1" stop-color="#184485"/></linearGradient><linearGradient id="g11" x1="605.1" y1="92.5" x2="756.9" y2="92.5" href="#P"><stop stop-color="#05aee9"/><stop offset=".1" stop-color="#00a9e0"/><stop offset=".2" stop-color="#07a3dc"/><stop offset=".3" stop-color="#089dd5"/><stop offset=".4" stop-color="#0a92cc"/><stop offset=".5" stop-color="#0f87c3"/><stop offset=".6" stop-color="#127cb8"/><stop offset=".7" stop-color="#0e70ad"/><stop offset=".8" stop-color="#0f63a3"/><stop offset=".9" stop-color="#135393"/><stop offset="1" stop-color="#184485"/></linearGradient><linearGradient id="g12" x1="577.1" y1="54.5" x2="728.9" y2="54.5" href="#P"><stop stop-color="#05aee9"/><stop offset=".1" stop-color="#00a9e0"/><stop offset=".2" stop-color="#07a3dc"/><stop offset=".3" stop-color="#089dd5"/><stop offset=".4" stop-color="#0a92cc"/><stop offset=".5" stop-color="#0f87c3"/><stop offset=".6" stop-color="#127cb8"/><stop offset=".7" stop-color="#0e70ad"/><stop offset=".8" stop-color="#0f63a3"/><stop offset=".9" stop-color="#135393"/><stop offset="1" stop-color="#184485"/></linearGradient><linearGradient id="g13" x1="784.9" y1="135" x2="633.1" y2="135" href="#P"><stop stop-color="#05aee9"/><stop offset=".1" stop-color="#00a9e0"/><stop offset=".2" stop-color="#07a3dc"/><stop offset=".3" stop-color="#089dd5"/><stop offset=".4" stop-color="#0a92cc"/><stop offset=".5" stop-color="#0f87c3"/><stop offset=".6" stop-color="#127cb8"/><stop offset=".7" stop-color="#0e70ad"/><stop offset=".8" stop-color="#0f63a3"/><stop offset=".9" stop-color="#135393"/><stop offset="1" stop-color="#184485"/></linearGradient><linearGradient id="g14" x1="813.9" y1="174.5" x2="662.1" y2="174.5" href="#P"><stop stop-color="#05aee9"/><stop offset=".1" stop-color="#00a9e0"/><stop offset=".2" stop-color="#07a3dc"/><stop offset=".3" stop-color="#089dd5"/><stop offset=".4" stop-color="#0a92cc"/><stop offset=".5" stop-color="#0f87c3"/><stop offset=".6" stop-color="#127cb8"/><stop offset=".7" stop-color="#0e70ad"/><stop offset=".8" stop-color="#0f63a3"/><stop offset=".9" stop-color="#135393"/><stop offset="1" stop-color="#184485"/></linearGradient></defs><style>.s0{fill:#dfdfdf}.s1{fill:#c3c9d5}.s2{fill:#cb3327}.s3{fill:#eb2023}.s4{fill:#05aee9}.s5{fill:#184485}.s6{fill:url(#g1)}.s7{fill:url(#g2)}.s8{fill:url(#g3)}.s9{fill:url(#g4)}.s10{fill:url(#g5)}.s11{fill:url(#g6)}.s12{fill:url(#g7)}.s13{fill:url(#g8)}.s14{fill:url(#g9)}.s15{fill:url(#g10)}.s16{fill:url(#g11)}.s17{fill:url(#g12)}.s18{fill:url(#g13)}.s19{fill:url(#g14)}.s20{fill:#e6e6e6}</style><path class="s0" d="m0 0h1500v525h-1500z" /><path class="s1" d="m0 442h1500v23h-1500zm0-83h1500v12h-1500zm0-78h1500v14h-1500z" /><path class="s2" d="m0 308h1500v41h-1500z" /><path class="s3" d="m0 380h1500v40h-1500zm0-59h1500v15h-1500z" /><path class="s2" d="m0 392h1500v13h-1500z" /><path class="s4" d="m500 0h1000v21h-1000z" /><path class="s4" d="m500 41h1000v31h-1000z" /><path class="s4" d="m500 80h1000v31h-1000z" /><path class="s4" d="m500 199h1000v31h-1000z" /><path class="s4" d="m500 239h1000v30h-1000z" /><path class="s5" d="m500 159h1000v31h-1000z" /><path class="s5" d="m500 120h1000v31h-1000z" /><path class="s5" d="m500 21h1000v13h-1000z" /><path class="s6" d="m725 239h152v30h-152z" /><path class="s7" d="m696 199h152v31h-152z" /><path class="s8" d="m611 80h152v31h-152z" /><path class="s9" d="m582 41h152v31h-152z" /><path class="s10" d="m553 0h152v21h-152z" /><path class="s11" d="m667 159h152v31h-152z" /><path class="s12" d="m639 120h152v31h-152z" /><path class="s13" d="m568 21h152v13h-152z" /><path class="s5" d="m500 46h1000v17h-1000z" /><path class="s5" d="m500 84h1000v17h-1000z" /><path class="s5" d="m500 204h1000v17h-1000z" /><path class="s5" d="m500 244h1000v14h-1000z" /><path class="s4" d="m500 164h1000v21h-1000z" /><path class="s4" d="m500 124h1000v22h-1000z" /><path class="s14" d="m728 244h152v14h-152z" /><path class="s15" d="m699 204h152v17h-152z" /><path class="s16" d="m614 84h152v17h-152z" /><path class="s17" d="m586 46h152v17h-152z" /><path class="s18" d="m642 124h152v22h-152z" /><path class="s19" d="m671 164h152v21h-152z" /><path class="s20" d="m500 269v-269h53l193 269zm-500-269h500v269h-500z" /><path class="s2" d="m500 190v-39h162l27 39zm-500-39h500v39h-500z" /><path class="s3" d="m500 178v-15h170l11 15zm-500-15h500v15h-500z" /><path class="s1" d="m709 217l9 13h-218v-13zm-209-14v-13h189l10 13zm0-65v-14h142l10 14zm0-66v-13h95l10 13zm0-27v-11h77l8 11zm-500 172h500v13h-500zm0-27h500v13h-500zm0-66h500v14h-500zm0-65h500v13h-500zm0-25h500v11h-500z" /><path class="s3" d="m500 269v-39h219l27 39zm0-158v-39h105l28 39zm0-77v-18h64l13 18zm-500 196h500v39h-500zm0-158h500v39h-500zm0-56h500v18h-500z" /><path class="s2" d="m553 0l11 16h-64v-16zm61 85l10 13h-124v-13zm112 156l10 14h-236v-14zm-726 0h500v14h-500zm0-156h500v13h-500zm0-85h500v16h-500z" /></svg>