<svg version="1.2" xmlns="http://www.w3.org/2000/svg" viewBox="0 0 1323 1010" width="1323" height="1010"><style>.s0{fill:#ffffff}</style><path class="s0" d="m1 1009c0 0-12.4 13.4 45-61c57.4-74.4 211.8-257.8 693-453c481.2-195.2 524-366 524-366c0 0-0.9-10-9-17c-8.1-7-15-6-15-6c0 0-10.1 6.7-6 21c4.1 14.3 15 21 15 21l-14 21c0 0-1.5-10.2-11-19c-9.5-8.8-17-8-17-8c0 0-7.2 12.9-1 34c6.2 21.1 11 17 11 17l-16 19c0 0-2-13.1-12-23c-10-9.9-19-13-19-13c0 0-12.3 19.3-10 35c2.3 15.7 20 23 20 23l-25 24c0 0-3.9-13-9-26c-5.1-13-25-19-25-19c0 0-11 10.6-11 37c0 26.4 18 28 18 28l-35 25c0 0 0.4-23.8-5-39c-5.4-15.2-21-21-21-21c0 0-19.1 17.7-22 45c-2.9 27.3 11 37 11 37l-29 16c0 0 0.2-37-4-50c-4.2-13-18-25-18-25c0 0-23 16.3-23 52c0 35.7 7 45 7 45l-27 13c0 0 2.2-30.4-4-56c-6.2-25.6-26-37-26-37c0 0-14.9 12.4-24 56c-9.1 43.6 4 60 4 60l-32 14c0 0 9.3-28.3 6-65c-3.3-36.7-26-52-26-52c0 0-26.2 26.6-34 65c-7.8 38.4 5 75 5 75l-29 11c0 0 8.2-12.6 6-70c-2.2-57.4-34-72-34-72c0 0-37 28.1-37 85c0 56.9 10 80 10 80l-33 14c0 0 7-39.7 7-93c0-53.3-32-79-32-79c0 0-40 22.7-40 93c0 70.3 19 97 19 97l-46 18c0 0 14-48.7 14-99c0-50.3-45-101-45-101c0 0-37.1 19.1-47 114c-9.9 94.9 19 114 19 114l-55 26c0 0 18.1-19.4 14-119c-4.1-99.6-46-121-46-121c0 0-59 51.7-59 131c0 79.3 31 138 31 138l-61 32c0 0 19.3-91.6 4-165c-15.3-73.4-60-98-60-98c0 0-62 40.2-62 153c0 112.8 35 158 35 158l-54 36c0 0 10-55.6-8-164c-18-108.4-74-108-74-108c0 0-44 34.4-44 141c0 106.6 47 187 47 187l-20 16c0 0-13.5-28.5-24-55c-10.5-26.5-32-76.1-32-166c0-89.9 28-143 28-143c0 0 30.4-26.6 159-75c128.6-48.4 161.1-48 538-73c376.9-25 484-279 484-279c0 0 19 35.6 19 95c0 59.4-53 47-53 47l-7 13c0 0 5.3-2 25-2c19.7 0 29 9 29 9c0 0-14.1 18-36 18c-21.9 0-28-7-28-7l-14 22c0 0 1-4 27-4c26 0 38 13 38 13c0 0-15.7 18-39 18c-23.3 0-37-12-37-12l-13 17c0 0-0.8 0 22 0c22.8 0 47 23 47 23c0 0-17.3 18-49 18c-31.7 0-43-16-43-16l-22 22c0 0 30.1-5.5 53 11c22.9 16.5 22 27 22 27c0 0-15.3 12-46 12c-30.7 0-55-29-55-29l-31 25c0 0 35.1-1.6 59 12c23.9 13.6 30 32 30 32c0 0-26.9 11-65 6c-38.1-5-53-31-53-31l-33 24c0 0 31.1-3 63 18c31.9 21 32 39 32 39c0 0-46.4 8.9-84-8c-37.6-16.9-43-30-43-30l-29 17c0 0 35.8 0.8 64 29c28.2 28.2 32 46 32 46c0 0-40.1 12.5-86 0c-45.9-12.5-62-47-62-47l-39 20c0 0 46.4 0.4 81 35c34.6 34.6 35 48 35 48c0 0-35.2 13.1-94-8c-58.8-21.1-68-54-68-54l-36 19c0 0 38.8 0.8 71 33c32.2 32.2 46 72 46 72c0 0-57.2-1.8-111-31c-53.8-29.2-58-49-58-49l-39 18c0 0 45 3 84 42c39 39 47 77 47 77c0 0-62.3 7.3-123-31c-60.7-38.3-58-64-58-64l-36 18c0 0 33.5 1.5 75 43c41.5 41.5 63 95 63 95c0 0-63.9-1.4-124-38c-60.1-36.6-74-70-74-70l-35 19c0 0 36.1 5.1 94 63c57.9 57.9 55 91 55 91c0 0-69.6 1.9-142-41c-72.4-42.9-77-76-77-76l-40 25c0 0 53.9 9.9 116 72c62.1 62.1 72 103 72 103c0 0-56 28.4-155-29c-99-57.4-99-105-99-105l-60 44c0 0 39.7 10.4 67 26c27.3 15.6 59.2 29.2 112 82c52.8 52.8 68 98 68 98c0 0-139 8.5-213-37c-74-45.5-96-118-96-118c0 0-39.8 31.7-81 81c-41.2 49.3-71 109-71 109z" /></svg>