<svg version="1.2" baseProfile="tiny-ps" xmlns="http://www.w3.org/2000/svg" viewBox="0 0 415 470" width="415" height="470">
	<title>Shape 4</title>
	<style>
		tspan { white-space:pre }
		.s0 { fill: #f1d212 } 
	</style>
	<path id="Shape 1" class="s0" d="m259 284l-9 25c0 0 0.24-0.29-1 2c-1.24 2.29-6 2-6 2c0 0-41-4.66-41 23c0 27.66 27 51 27 51c0 0 2 0.75 2 3c0 2.25-2 3-2 3c0 0-55.08 27-64 27c-8.92 0-18.96-8-21-8c-2.04 0-1.78 4.07-2 6c-0.22 1.93-1.25 17-9 17c-7.75 0-5.95-14-21-14c-15.05 0-17.82 8-22 8c-4.18 0-7-4.25-7-9c0-4.75 1-4.14 1-7c0-2.86 0.21-5-5-5c-5.21 0-5.42 4-11 4c-5.58 0 3.5-12.92 6-15c2.5-2.08 5-2 5-2c0 0 5 1.66 5-4c0-5.66-9.98-14 7-14c16.98 0 19.81 15 43 15c23.19 0 39-11 39-11c0 0 9-4.13 9-23c0-18.87-13.07-24.34-17-26c-3.93-1.66-25.56-0.62-15-10c10.56-9.38-6.22-6.72-10-7c-3.78-0.28-4.15 2.06-7-5c-2.85-7.06 5-7 5-7c0 0 16.33-0.67 22-4c5.67-3.33 4-4 4-4c0 0 11.73-16.92 15-19c3.27-2.08 6-1 6-1l73 7c1.66 0.28 1 2 1 2z" />
	<path id="Shape 2" class="s0" d="m91 161c-4.02-8.1-12-14-12-14c0 0-22.8-19-33-19c-10.2 0-3.25 12-16 12c-12.75 0 0.03-12.97-11-24c-11.03-11.03-19-3.71-19-10c0-6.29 17-6.59 17-11c0-4.41-6-9.21-6-11c0-1.79 3.64-9 11-9c7.36 0 4.92 9 10 9c5.08 0 5.58-10 10-10c4.42 0 10.36 7.3 11 8c0.64 0.7 1 3 1 3c0 0 2.43 14.21 5 19c2.57 4.79 3 3 3 3l38 24c0 0 13 10.03 13 30c0 19.97-11 21-11 21c-6.91 0-6.98-12.9-11-21z" />
	<path id="Shape 3" class="s0" d="m79 80c0 0 11.77-0.56 21-4c9.23-3.44 19.96-4.4 2 3c-17.96 7.4-17.79 7.11-21 5c-3.21-2.11-2-4-2-4z" />
	<path id="Shape 4" class="s0" d="m119 51c0-8.58 1.51-12.62 7-17c5.49-4.38 5-3 5-3c0 0 23.98-9.12 44-15c20.02-5.88 27.71-3 37-3c9.29 0 39.68-13 41-13c1.32 0 8 3.99 8 9c0 5.01-6 7.41-6 12c0 4.59 13.07 8.8 22 20c8.93 11.2 16 22.93 16 28c0 5.07-5.6 2.97-9 2c-3.4-0.97-14-4.31-14 4c0 8.31 27 7.57 27 18c0 10.43-0.81 17-6 17c-5.19 0-16.07-7-19-7c-2.93 0-3.19 1.98-5 4c-1.81 2.02-2 0.46-2 5c0 4.54 21.94 10.52 22 15c0.06 4.48-10.82 16-14 16c-3.18 0-13.84-12.47-18-8c-4.16 4.47 7 15.7 7 19c0 3.3-3 4.54-3 7c0 2.46 2 4 2 4c0 0 78.44 87.77 94 104c15.56 16.23 22.28 16 26 16c3.72 0 14-0.71 14-21c0-20.29-22.47-35.77-54-65c-31.53-29.23-41-57.08-41-63c0-5.92 0.96-32 37-32c36.04 0 58 32.44 58 43c0 10.56-6 18.82-6 22c0 3.18 1 6 1 6c0 0-1.72 0-5 0c-3.28 0-14-7.2-14-14c0-6.8 2.07-9.47 2.07-13.93c0-4.46-2.41-7.07-7.07-7.07c-4.66 0-3.95 19-9 19c-5.05 0-8-7.67-8-15c0-7.33-1.82-19-14-19c-12.18 0-15 10.72-15 18c0 7.28 6 17 6 17c0 0 10.14 18.94 30 40c19.86 21.06 38 36 38 36c0 0 20 16.12 20 37c0 20.88-25.06 29-35 29c-9.94 0-32.74-11-35-11c-2.26 0-9 1.7-9 20c0 18.3 21.17 28 35 28c13.83 0 38.24-5 41-5c2.76 0 4 0.17 4 9c0 8.83-6.35 14-13 14c-6.65 0-11 7.17-11 10c0 2.83 2.21 6 8 6c5.79 0 8-1.7 8 4c0 5.7-10.22 17.43-28 32c-17.78 14.57-32 19.04-32 25c0 5.96 5.57 9.82 0 14c-5.57 4.18-13.77-3.77-33 5c-19.23 8.77-11.47 17-22 17c-10.53 0-11.4-16-14-16c-2.6 0-4.87 3-7 3c-2.13 0-7-3.33-7-10c0-6.67 11-5.2 11-10c0-4.8-6-4.02-6-10c0-5.98 8.32-8 15-8c6.68 0 16.24 3 19 3c2.76 0 26.03-6.03 38-18c11.97-11.97 11-24.18 11-29c0-4.82 0.81-21-25-21c-25.81 0-19.47 22-30 22c-10.53 0-4.33-7-14-7c-9.67 0-1.81 18-14 18c-12.19 0-5.82-41.47 0-70c5.82-28.53 11-42.27 11-46c0-3.73-3-5-3-5c0 0-22.61-18-35-18c-12.39 0-19.74 8-30 8c-10.26 0-31.89-22-39-22c-7.11 0-21 9.47-21 13c0 3.53 3 0.22 3 6c0 5.78-6.55 6.12-11 2c-4.45-4.12-10.64-5-16-5c-5.36 0-7.13 4.24-19 7c-11.87 2.76-25-0.85-25 5c0 5.85 10 13.72 10 20c0 6.28-6.09 9-12 9c-5.91 0-4.28-2.59-5-4c-0.72-1.41-5.32-6.63-18-1c-12.68 5.63-3.01 12-11 12c-7.99 0-8-11.54-8-18c0-6.46-6.34-6.31-10-3c-3.66 3.31-6 3.97-6-5c0-8.97 7-12.79 7-16c0-3.22-2-2.07-2-5c0-2.93 4.49-7 16-7c11.51 0 7.58 4 18 4c10.42 0 50-28.6 50-33c0-4.4-9-4-9-4c0 0 23-43.14 23-51c0-7.86-6-14.34-6-26c0-11.66 12.48-22.74 18-28c5.52-5.26 26.45-22 17-22c-9.45 0-14.17 9-18 9c-3.83 0-7-2.04-7-6c0-3.96-1.19-10 16-10c17.19 0 25-14.73 25-19c0-4.27-0.8-13-19-13c-18.2 0-23 18-23 18c0 0-11-3.42-11-12z" />
</svg>