<svg version="1.2" baseProfile="tiny-ps" xmlns="http://www.w3.org/2000/svg" viewBox="0 0 260 205" width="260" height="205">
	<title>Shape 5</title>
	<style>
		tspan { white-space:pre }
		.s0 { fill: #e0930b } 
		.s1 { fill: #ffe701 } 
	</style>
	<path id="Shape 6" class="s0" d="m111 43c0 0-7.42 1.91-21-8c-13.58-9.91-5-20-5-20l26 28z" />
	<path id="Shape 7" class="s0" d="m60 14c-4.7 4.27-6 8.73-6 12c0 3.27 4.83 14.51 25 24c20.17 9.49 50 12 50 12l7 8c0 0 0.44 0.12-14-1c-14.44-1.12-35.16-6.22-46-11c-10.84-4.78-28-16.32-28-30c0-13.68 22-22 22-22c0 0-5.3 3.73-10 8z" />
	<path id="Shape 8" class="s0" d="m38 30c0 19.12 30.45 33.53 49 40c18.55 6.47 57 9 57 9l14 14c0 0-38.04-2.61-69-10c-30.96-7.39-59-23.91-59-47c0-23.09 35-33 35-33c0 0-27 7.88-27 27z" />
	<path id="Shape 9" class="s0" d="m22 40c0 25.68 34.24 41.73 69 52c34.76 10.27 79 13 79 13l46 49c0 0 9.69 4.62-14-7c-23.69-11.62-88.6-20.96-112-26c-23.4-5.04-90-27.77-90-69c0-41.23 62-52 62-52c0 0-40 14.32-40 40z" />
	<path id="Shape 10" class="s0" d="m215 173c-32.87-13.02-54.67-16-66-16c-11.33 0-26 4.01-26 11c0 6.99 12.96 14 23 14c10.04 0 14-4.89 14-9c0-4.11-9-9-9-9c0 0-2.58 0 4 0c6.58 0 24 6.98 24 18c0 11.02-20.08 23-41 23c-20.92 0-38.1-11.88-47-21c-8.9-9.12-22.5-43 38-43c60.5 0 131 51 131 51c0 0-12.13-5.98-45-19z" />
	<path id="Shape 1" class="s1" d="m19 40c0 21.74 23.8 40.29 64 53c40.2 12.71 90 15 90 15l37 40c0 0-3.93-2.12-23-10c-19.07-7.88-48.22-8.12-101-21c-52.78-12.88-83-41.77-83-66c0-24.23 28-37 28-37c0 0-12 4.26-12 26z" />
	<path id="Shape 2" class="s1" d="m184 159c-11.03-2.74-23.66-4-36-4c-12.34 0-28 4.1-28 12c0 7.9 11.42 18 25 18c13.58 0 17.84-8.54 18-12c0.16-3.46-2-5-2-5l9 4c0 0 15.61 11.59-4 22c-19.61 10.41-40.97 8.19-61-2c-20.03-10.19-20-26-20-26c0 0-0.78-23 43-23c43.78 0 96 30 96 30c0 0-28.97-11.26-40-14z" />
	<path id="Shape 3" class="s1" d="m35 32c0 5.88 5.22 13.7 13 21c7.78 7.3 10.46 9.05 33 18c22.54 8.95 66 11 66 11l8 8c0 0-14.63-0.29-34-3c-19.37-2.71-29.11-3.86-56-16c-26.89-12.14-32-28.99-32-36c0-7.01 4-12 4-12c0 0-2 3.12-2 9z" />
	<path id="Shape 4" class="s1" d="m53 32c3.61 4.86 4.9 10.17 24 20c19.1 9.83 54 12 54 12l2 3c0 0-30.91-0.78-55-11c-24.09-10.22-28-23.67-28-28c0-4.33 2-6 2-6c0 0-2.61 5.14 1 10z" />
	<path id="Shape 5" class="s1" d="m108 40c0 0-4.39 0.89-16-8c-11.61-8.89-5-15-5-15l21 23z" />
</svg>