<svg version="1.2" xmlns="http://www.w3.org/2000/svg" viewBox="0 0 841 88" width="841" height="88"><style>.s0{fill:#223f9a}</style><path fill-rule="evenodd" class="s0" d="m0 4h13v67h-13zm26 67v-49h11v7c0 0 4.5-7 15-7c10.5 0 17 9.2 17 15c0 5.8 0 34 0 34h-13v-31c0 0 0-8-8-8c-8 0-9 6.5-9 8c0 1.5 0 31 0 31zm73-41c-2.2 0-8-0.7-8 5c0 5.7 21 9.8 21 21c0 11.2-13.2 16-20 16c-6.8 0-15-4-15-4l2-9c0 0 10.2 4 13 4c2.8 0 8-1 8-6c0-5-21-10.3-21-21c0-10.7 12.2-14 18-14c5.8 0 13 2 13 2l-2 9c0 0-6.8-3-9-3zm21 58v-66h11v7c0 0 6.2-7 16-7c9.8 0 21 7.7 21 24c0 16.3-12.4 26-22 26c-9.6 0-13-6-13-6v22zm36-41.5c0-8.6-5.4-15.5-12-15.5c-6.6 0-12 6.9-12 15.5c0 8.6 5.4 15.5 12 15.5c6.6 0 12-6.9 12-15.5zm22-24.5h12v49h-12zm6-5c-3.9 0-7-3.1-7-7c0-3.9 3.1-7 7-7c3.9 0 7 3.1 7 7c0 3.9-3.1 7-7 7zm18 54v-49h11v8c0 0 5.1-8 11-8c5.9 0 6 0 6 0v12h-6c0 0-9 0-9 9c0 9 0 28 0 28zm60 0v-5c0 0-3.6 3.5-7 5c-3.4 1.5-22 3.9-22-14c0-17.9 28-18 28-18c0 0 0 1.3 0-1c0-2.3-3.2-7-9-7c-5.8 0-14 3-14 3l-2-8c0 0 5.9-4 17-4c11.1 0 21 6.9 21 17c0 10.1 0 32 0 32zm-14-20c-3.4 3.4-5 11 4 11c9 0 9-5 9-5v-10c0 0-9.6 0.6-13 4zm52-29h11v10h-11c0 0 0 21 0 25c0 4 4 4 4 4h6v10c0 0-6 1-8 1c-2 0-6.7 0.3-11-4c-4.3-4.3-4-11-4-11v-25h-7v-10h7v-8l13-4zm21 0h12v49h-12zm6-5c-3.9 0-7-3.1-7-7c0-3.9 3.1-7 7-7c3.9 0 7 3.1 7 7c0 3.9-3.1 7-7 7zm38.5 55c-13.5 0-24.5-11.2-24.5-25c0-13.8 11-25 24.5-25c13.5 0 24.5 11.2 24.5 25c0 13.8-11 25-24.5 25zm11.5-25.5c0-9.1-5.4-16.5-12-16.5c-6.6 0-12 7.4-12 16.5c0 9.1 5.4 16.5 12 16.5c6.6 0 12-7.4 12-16.5zm20 24.5v-49h11v7c0 0 4.5-7 15-7c10.5 0 17 9.2 17 15c0 5.8 0 34 0 34h-13v-31c0 0 0-8-8-8c-8 0-9 6.5-9 8c0 1.5 0 31 0 31zm94.5 1c-13.5 0-24.5-11.2-24.5-25c0-13.8 11-25 24.5-25c13.5 0 24.5 11.2 24.5 25c0 13.8-11 25-24.5 25zm11.5-25.5c0-9.1-5.4-16.5-12-16.5c-6.6 0-12 7.4-12 16.5c0 9.1 5.4 16.5 12 16.5c6.6 0 12-7.4 12-16.5zm37 24.5h-13v-39h-6v-10h6c0 0-0.4-11.6 5-17c5.4-5.4 11.5-5 14-5c2.5 0 8 1 8 1l-1 10c0 0-6.8-2.2-10 1c-3.2 3.2-3 10-3 10h10v10h-10zm42-10c1.5 0 11 0.1 11-8c0-8.1 0-49 0-49h13c0 0 0 33.7 0 49c0 15.3-16 19-22 19c-6 0-12-2-12-2l1-10c0 0 7.5 1 9 1zm29 10l23-67h16l23 67h-14l-6-18h-23l-6 18zm39-27l-8-27l-9 27zm29 27v-66c0 0 12.9-1 19-1c6.1 0 27-1 27 21c0 22-20.9 22-27 22c-6.1 0-6 0-6 0v24zm13-33c0 0 21 0.9 21-13c0-13.9-21-11-21-11zm29 33l23-67h16l23 67h-14l-6-18h-23l-6 18zm39-27l-8-27l-9 27zm28 27v-67h15l26 47v-47h12v67h-13l-27-48v48z" /></svg>