<svg version="1.2" xmlns="http://www.w3.org/2000/svg" viewBox="0 0 1859 71" width="1859" height="71"><style>.s0{fill:#001246}</style><path fill-rule="evenodd" class="s0" d="m0 19h16v51h-16zm32 37c0 0 33 12.8 33 1c0-11.8-35-4.3-35-24c0-19.7 40-12.8 44-12c4 0.8 4 1 4 1v9c0 0-31-8.8-31 0c0 8.8 34 7.5 34 24c0 16.5-30.7 16.7-40 14c-9.3-2.7-9-3-9-3zm62 14v-51h35c0 0 17 2.9 17 14c0 11.1-12 13-12 13c0 0 5 2.2 7 5c2 2.8 11 19 11 19h-17l-11-18c0 0-0.7-2-4-3c-3.3-1-10-1-10-1v22zm16-29h11c0 0 8 0 8-7c0-7-8-7-8-7h-11zm45 29l27-51h20l29 51h-17l-6-11h-31l-5 11zm48-18l-11-22l-10 22zm38-33h49v8h-33v13h31v7h-31v15h33v8h-49zm79 0v43h36v8h-51v-51z" /><path fill-rule="evenodd" class="s0" d="m388 70l27-51h20l29 51h-17l-6-11h-31l-5 11zm48-18l-11-22l-10 22zm38-33h16v51h-16zm33 51v-51h35c0 0 17 2.9 17 14c0 11.1-12 13-12 13c0 0 5 2.2 7 5c2 2.8 11 19 11 19h-17l-11-18c0 0-0.7-2-4-3c-3.3-1-10-1-10-1v22zm16-29h11c0 0 8 0 8-7c0-7-8-7-8-7h-11zm67-22v43h36v8h-51v-51zm48 0h16v51h-16zm33 0h16l36 32v-32h16v51h-14l-38-34v34h-16zm85 0h49v8h-33v13h31v7h-31v15h33v8h-49zm63 37c0 0 33 12.8 33 1c0-11.8-35-4.3-35-24c0-19.7 40-12.8 44-12c4 0.8 4 1 4 1v9c0 0-31-8.8-31 0c0 8.8 34 7.5 34 24c0 16.5-30.7 16.8-40 14c-9.3-2.7-9-3-9-3z" /><path class="s0" d="m953 48c-5 0-9-4-9-9c0-5 4-9 9-9c5 0 9 4 9 9c0 5-4 9-9 9z" /><path class="s0" d="m1047 0v17h31c0 0 0 16.9 0 25c0 8.1-10 8.1-10 18c0 9.9 0 10 0 10h-14c0 0 0-5 0-13c0-8 10-7.9 10-18c0-10.1 0-11 0-11h-31v-28zm59 17l17 22c0 0 1.9 0.9 4-4c2.1-4.9 3-18 3-18h12c0 0 0-21.9 0 2c0 23.9-13 28-13 28l17 23h-17l-20-26c0 0-2.7 0.2-5 10c-2.3 9.8-2 16-2 16h-13c0 0 0 13 0-7c0-20 13-29 13-29l-13-17zm82 28c0-15.5-10.3-18-19-18c-8.7 0-15 1-15 1v-10c0 0 3.1-1 25-1c21.9 0 23 23 23 23v30h-14c0 0 0-9.5 0-25zm40-28v26c0 0 5.8 0.2 10-4c4.2-4.2 4-22 4-22h14c0 0 1.2 19.8-6 27c-7.2 7.2-19 8-19 8c0 0 1.7 3.7 5 7c3.3 3.3 9.4 4 12 4c2.6 0 7.8 0.2 15-7c7.2-7.2 7-39 7-39h14c0 0 0.5 34.5-8 43c-8.5 8.5-12.9 11-28 11c-15.1 0-19.3-3.3-27-11c-7.7-7.7-7-43-7-43zm68 0h15v29h-15zm39-17v17h31c0 0 0 16.9 0 25c0 8.1-10 8.1-10 18c0 9.9 0 10 0 10h-14c0 0 0-5 0-13c0-8 10-7.9 10-18c0-10.1 0-11 0-11h-31v-28zm106 45c0-15.5-10.3-18-19-18c-8.7 0-15 1-15 1v-10c0 0 3.1-1 25-1c21.9 0 23 23 23 23v30h-14c0 0 0-9.5 0-25zm29-28h15v29h-15zm29 0h14v53h-14zm46 0l17 22c0 0 1.9 0.9 4-4c2.1-4.9 3-18 3-18h12c0 0 0-21.9 0 2c0 23.9-13 28-13 28l17 23h-17l-20-26c0 0-2.7 0.2-5 10c-2.3 9.8-2 16-2 16h-13c0 0 0 13 0-7c0-20 13-29 13-29l-13-17zm76 0h15v29h-15zm28 43h32c0 0 0-10 0-20c0-10-10.6-13-19-13c-8.4 0-13 1-13 1v-10c0 0-0.6-1 20-1c20.6 0 26 16 26 16v27h11v10h-57zm68-43h15v29h-15zm73 0c21 0 21 20 21 20v33h-14c0 0 0-14 0-29c0-15-19-15-19-15h-4c0 0 0 27.9 0 36c0 8.1-10.8 8-16 8c-5.2 0-11-1-11-1l1-8c0 0 2.1 1 6 1c3.9 0 6-3 6-3v-32l-12 1l-1-10c0 0 22-1 43-1zm38 0h18c0 0 13 0.1 13 16c0 15.9 0 37 0 37h-31v-10h17v-24c0 0-0.1-9-8-9c-7.9 0-9 0-9 0z" /></svg>