<svg version="1.2" xmlns="http://www.w3.org/2000/svg" viewBox="0 0 1067 167" width="1067" height="167"><style>.s0{fill:#79c24e}.s1{fill:#0c734c}.s2{fill:#ca1316}.s3{fill:#980a16}</style><path class="s0" d="m842 9l55-9h170c0 0-203.9 43.1-375 108c-171.1 64.9-223 58-223 58z" /><path class="s1" d="m469 166l-179-49c0 0 145.5 2.6 295-41c149.5-43.6 176.9-50.6 209-58c32.1-7.4 47-9 47-9l118-3c0 0-132.9 29.1-249 77c-116.1 47.9-241 83-241 83z" /><path class="s2" d="m841 0c0 0-86.8 13.1-238 55c-151.2 41.9-314.7 48-355 48c-40.3 0-90-4.7-169-20c-79-15.3-79-15-79-15v-68z" /><path class="s3" d="m604 53c0 0-58.9 5-137 5c-78.1 0-121-14-121-14c0 0 37.4-17.6 67-27c29.6-9.4 58-17 58-17h116c0 0-13.6 1.8-26 4c-12.4 2.2-30 6-30 6c0 0 111-8 168-8c57 0 100 5 100 5z" /></svg>