<svg version="1.2" xmlns="http://www.w3.org/2000/svg" viewBox="0 0 239 241" width="239" height="241"><style>.s0{fill:#0c734c}.s1{fill:#ca1316}</style><path fill-rule="evenodd" class="s0" d="m59 127l14 39l-9 1l-3-10l-12 33l-7-4l1-7h-15l33 24l14-9l-7-15h-12l3-9h59l-30 24l-4-6l8-9h-14l19 60l-31-23l5-5l11 7l-5-14l-50 35l11-42l-38-26h46zm-13 76l-4 15l12-9z" /><path class="s1" d="m77 165l-16-42c0 0 55-123 129-123c74 0 50.6 103.8 15 156c-35.6 52.2-76 86-76 86c0 0 47.8-49.9 71-100c23.2-50.1 37-115-12-115c-49 0-105.8 114.8-111 138z" /></svg>