<svg version="1.1" viewBox="0.0 0.0 198.0 33.0" fill="none" stroke="none" stroke-linecap="square" stroke-miterlimit="10" xmlns:xlink="http://www.w3.org/1999/xlink" xmlns="http://www.w3.org/2000/svg"><clipPath id="p.0"><path d="m0 0l198.0 0l0 33.0l-198.0 0l0 -33.0z" clip-rule="nonzero"/></clipPath><g clip-path="url(#p.0)"><path fill="#000000" fill-opacity="0.0" d="m0 0l198.0 0l0 33.0l-198.0 0z" fill-rule="evenodd"/><path fill="#d41a2e" d="m0 0l13.984252 0l0 33.007874l-13.984252 0z" fill-rule="evenodd"/><path fill="#ffffff" d="m14.0 0l4.0 0l0 33.007874l-4.0 0z" fill-rule="evenodd"/><path fill="#004986" d="m18.0 0l16.0 0l0 33.007874l-16.0 0z" fill-rule="evenodd"/><path fill="#ffffff" d="m34.0 0l4.0 0l0 33.007874l-4.0 0z" fill-rule="evenodd"/><path fill="#d41a2e" d="m38.0 0l38.015747 0l0 33.007874l-38.015747 0z" fill-rule="evenodd"/><path fill="#004986" d="m76.0 0l16.0 0l0 33.007874l-16.0 0z" fill-rule="evenodd"/><path fill="#f0d34f" d="m92.0 0l13.984253 0l0 33.007874l-13.984253 0z" fill-rule="evenodd"/><path fill="#004986" d="m106.0 0l40.0 0l0 33.007874l-40.0 0z" fill-rule="evenodd"/><path fill="#d41a2e" d="m146.0 0l8.0 0l0 33.007874l-8.0 0z" fill-rule="evenodd"/><path fill="#ffffff" d="m154.0 0l10.015747 0l0 33.007874l-10.015747 0z" fill-rule="evenodd"/><path fill="#d41a2e" d="m164.0 0l34.015747 0l0 33.007874l-34.015747 0z" fill-rule="evenodd"/></g></svg>