<svg version="1.1" viewBox="0.0 0.0 3157.0 167.0" fill="none" stroke="none" stroke-linecap="square" stroke-miterlimit="10" xmlns:xlink="http://www.w3.org/1999/xlink" xmlns="http://www.w3.org/2000/svg"><clipPath id="p.0"><path d="m0 0l3157.0 0l0 167.0l-3157.0 0l0 -167.0z" clip-rule="nonzero"/></clipPath><g clip-path="url(#p.0)"><path fill="#000000" fill-opacity="0.0" d="m0 0l3157.0 0l0 167.0l-3157.0 0z" fill-rule="evenodd"/><path fill="#deb871" d="m-0.8550068 167.65869c5.702537 -0.9028778 -2.4711285 -1.5209961 21.955381 -4.847763c24.426508 -3.326767 73.1846 -10.313217 124.60368 -15.112854c51.419067 -4.799652 101.003494 -8.885391 183.91075 -13.685043c82.90726 -4.799652 203.8797 -10.503067 313.53284 -15.112862c109.653076 -4.6098022 228.60236 -8.981628 344.3858 -12.545937c115.78345 -3.5643005 243.74146 -6.131233 350.31494 -8.83989c106.57349 -2.708664 176.01355 -4.7987747 289.12598 -7.412079c113.11243 -2.6132965 242.48645 -5.511368 389.54858 -8.267715c147.06201 -2.75634 356.4734 -6.131668 492.82422 -8.27034c136.35083 -2.1386719 237.84912 -3.5161896 325.28076 -4.5616837c87.43164 -1.0454941 145.62866 -1.2362137 199.30981 -1.7112808c53.68091 -0.47506714 97.656494 -0.8538971 122.776855 -1.1391068c25.120361 -0.2852173 30.510986 9.550301 27.944824 -0.5721817c-2.566162 -10.122482 18.20044 -51.13342 -43.34131 -60.162727c-61.541504 -9.029309 -78.35498 3.848206 -325.90796 5.986876c-247.55298 2.138671 -692.29395 3.803588 -1159.4095 6.845145c-467.11548 3.0415573 -1361.2957 -12.261593 -1643.2834 11.4042c-281.98773 23.665792 -44.337708 107.49474 -48.643044 130.59056c-4.305336 23.095795 16.96588 6.748459 22.811024 7.984253c5.8451443 1.2357788 6.557305 0.33332825 12.259842 -0.5695648z" fill-rule="evenodd"/><path fill="#22274d" d="m-0.0131233595 39.062992l3157.0078 0l0 13.417324l-3157.0078 0z" fill-rule="evenodd"/><path fill="#ffa705" d="m-0.002624672 29.385826l3157.008 0l0 9.700787l-3157.008 0z" fill-rule="evenodd"/><path fill="#22274d" d="m-0.002624672 0l3157.008 0l0 29.385826l-3157.008 0z" fill-rule="evenodd"/></g></svg>