<svg version="1.1" viewBox="0.0 0.0 716.0 176.0" fill="none" stroke="none" stroke-linecap="square" stroke-miterlimit="10" xmlns:xlink="http://www.w3.org/1999/xlink" xmlns="http://www.w3.org/2000/svg"><clipPath id="p.0"><path d="m0 0l716.0 0l0 176.0l-716.0 0l0 -176.0z" clip-rule="nonzero"/></clipPath><g clip-path="url(#p.0)"><path fill="#000000" fill-opacity="0.0" d="m0 0l716.0 0l0 176.0l-716.0 0z" fill-rule="evenodd"/><path fill="#3f075c" d="m-16.036745 176.0l366.27536 -176.0l127.267944 0l-366.27536 176.0z" fill-rule="evenodd"/><path fill="#ffffff" d="m56.868767 176.0l389.0779 -176.0l104.46536 0l-389.07788 176.0z" fill-rule="evenodd"/><path fill="#3f075c" d="m222.4567 176.0l368.65665 -176.0l124.88666 0l-368.65665 176.0z" fill-rule="evenodd"/><path fill="#c5007d" d="m149.39896 176.0l389.0779 -176.0l104.46539 0l-389.07794 176.0z" fill-rule="evenodd"/><path fill="#f7d002" d="m116.32546 176.0l389.0779 -176.0l104.46539 0l-389.07794 176.0z" fill-rule="evenodd"/><path fill="#3f075c" d="m-3.2677166 -0.010498688l0 185.10236l377.41733 -185.10236z" fill-rule="evenodd"/></g></svg>