<svg version="1.2" baseProfile="tiny-ps" xmlns="http://www.w3.org/2000/svg" viewBox="0 0 488 200" width="488" height="200">
	<title>Shape 1</title>
	<defs>
		<linearGradient id="grd1" gradientUnits="userSpaceOnUse"  x1="244" y1="0" x2="244" y2="200">
			<stop offset="0" stop-color="#b4b4b4"  />
			<stop offset=".5" stop-color="#d8d8d8"  />
			<stop offset="1" stop-color="#b4b4b4"  />
		</linearGradient>
	</defs>
	<style>
		tspan { white-space:pre }
		.s0 { fill: url(#grd1) } 
	</style>
	<path id="Shape 1" class="s0" d="m425 43c0 0 2.88-4 6-4c3.12 0 57 23.96 57 72c0 48.04-47.99 89-138 89c-90.01 0-113-30-113-30c0 0-10.41 8-55 8c-44.59 0-86.19-24.19-107-45c-20.81-20.81-34.31-45.13-54-71c-19.69-25.87-16-20-16-20c0 0 8.97-7.85 37 13c28.03 20.85 67.11 55.78 94 80c26.89 24.22 55.8 29.2 61 24c5.2-5.2-16.31-10.23-33-21c-16.69-10.77-61.64-45.64-97-81c-35.36-35.36-67-39-67-39c0 0 9.8-2.88 25 2c15.2 4.88 17 6 17 6c0 0-0.86 3.52-6-11c-5.14-14.52-4-15-4-15c0 0 9.51 19 43 44c33.49 25 57.99 30.81 98 55c40.01 24.19 48.58 46 56 46c7.42 0 7.22-10.32-1-20c-8.22-9.68-13.5-12.2-29-24c-15.5-11.8-60.29-32.26-84-47c-23.71-14.74-25.53-15.55-36-28c-10.47-12.45-12-22-12-22c0 0 20.92 20.72 82 47c61.08 26.28 120 59.78 120 81c0 21.22-20 34-20 34c0 0 22.13 25 101 25c78.87 0 128-36.18 128-79c0-42.82-53-69-53-69z" />
</svg>