<svg version="1.2" baseProfile="tiny-ps" xmlns="http://www.w3.org/2000/svg" viewBox="0 0 548 579" width="548" height="579">
	<title>United blue globe</title>
	<style>
		tspan { white-space:pre }
		.s0 { fill: #ffffff } 
		.s1 { fill: #6db2e1 } 
	</style>
	<path id="Shape 13" fill-rule="evenodd" class="s0" d="m113 888c-240.56 0-435-198.47-435-444c0-245.53 194.44-444 435-444c240.56 0 435 198.47 435 444c0 245.53-194.44 444-435 444zm430-444c0-242.21-192.21-438-430-438c-237.79 0-430 195.79-430 438c0 242.21 192.21 438 430 438c237.79 0 430-195.79 430-438z" />
	<path id="Shape 14" class="s0" d="m514 579l16-59l8-80l7 6l-5 62l-2 17l-4 19l-5 18l-3 13l-1 4h-11z" />
	<path id="Shape 2" class="s1" d="m0 202l20 11l-10 12l-10-5v-18z" />
	<path id="Shape 3" class="s1" d="m0 168c0 0 16.53 0.72 24 2c7.47 1.28 19 4 19 4l-7 16c0 0-9.75-3.27-17-5c-7.25-1.73-19-4-19-4v-13z" />
	<path id="Shape 4" class="s1" d="m0 144c0 0 13.37-1.22 28-2c14.63-0.78 26-1 26-1l-4 18c0 0-6.8-0.48-22-1c-15.2-0.52-28-1-28-1v-13z" />
	<path id="Shape 5" class="s1" d="m0 126c0 0 8.08-2.37 26-7c17.92-4.63 28-7 28-7l1 17c0 0-12 1.08-26 3c-14 1.92-29 5-29 5v-11z" />
	<path id="Shape 6" class="s1" d="m0 109c0 0 8.17-3.89 24-10c15.83-6.11 23-9 23-9l5 14c0 0-8.74 1.57-24 6c-15.26 4.43-28 10-28 10v-11z" />
	<path id="Shape 7" class="s1" d="m0 90c0 0 0.64-0.89 16-9c15.36-8.11 16-8 16-8l9 11l-41 18v-12z" />
	<path id="Shape 8" class="s1" d="m0 65l7-4l17 8l-24 15v-19z" />
	<path id="Shape 9" class="s1" d="m0 36c0 0 4.63-1.79 16-3c11.37-1.21 18-1 18-1l-20 16l8 2l28-19c0 0 10.6 0.37 21 2c10.4 1.63 16 4 16 4l-47 23l5 5c0 0 11.65-5.88 29-13c17.35-7.12 27-10 27-10c0 0 7.36 3 13 7c5.64 4 9 9 9 9c0 0-10.7 2.09-34 9c-23.3 6.91-32 10-32 10l5 8c0 0 11.05-3.65 34-10c22.95-6.35 38-9 38-9l12 20c0 0-14.04 1.38-37 5c-22.96 3.62-41 9-41 9l2 9c0 0 14.78-3.32 37-6c22.22-2.68 44-4 44-4c0 0 2.2 7.23 3 13c0.8 5.77 1 13 1 13c0 0-13.92-1-38-1c-24.08 0-45 3-45 3l-1 13c0 0 26.82-0.49 47 0c20.18 0.49 36 3 36 3l-5 29c0 0-10.53-3.5-39-7c-28.47-3.5-43-4-43-4l-6 16c0 0 14.74 2.38 39 9c24.26 6.62 39 12 39 12l-12 26c0 0-11.63-5.42-36-15c-24.37-9.58-40-13-40-13l-14 25c0 0 12.66 5.5 31 16c18.34 10.5 35 22 35 22l-16 21c0 0-18.45-14.35-31-23c-12.55-8.65-33-22-33-22c0 0-1.75 4.47-11 13c-9.25 8.53-12 10-12 10v-13c0 0 62-56.26 62-117c0-60.74-62-73-62-73v-19z" />
	<path id="Shape 10" class="s1" d="m0 261l51 54l-17 14l-34-40v-28z" />
	<path id="Shape 11" class="s1" d="m0 397l27 53l-19 10l-8-13v-50z" />
	<path id="Shape 12" class="s1" d="m0 360c0 0 40.05-19.32 96-81c55.95-61.68 92.76-166.24 40-219c-52.76-52.76-136-27-136-27v-11c0 0 46.99-16 112-16c65.01 0 117 15 117 15c0 0 97.66 19.66 190 112c92.34 92.34 124 204.46 124 303c0 98.54-24 143-24 143h-10c0 0 7.98-25.3 12-42c4.02-16.7 10-54 10-54c0 0-6 22.72-11 43c-5 20.28-13 42-13 42l-4-7l-8 18h-11c0 0 19.32-40.77 34-89c14.68-48.23 15-101 15-101l-5 26l-4-4c0 0-2.27 16.18-7 36c-4.73 19.82-10 28-10 28l6 15c0 0-2.63 12.39-7 24c-4.37 11.61-11 28-11 28l-9-17c0 0-4.87 12.4-15 30c-10.13 17.6-15 24-15 24h-12c0 0 25.97-43.23 38-69c12.03-25.77 21-54 21-54c0 0 18-57.75 18-105c0-47.25-23-87-23-87l5 41l13 16c0 0 0 15.77 0 34c0 18.23-5 35-5 35l-13-14c0 0-0.52 11.22-7 35c-6.48 23.78-8 27-8 27l13 21c0 0-1.92 8.53-8 25c-6.08 16.47-12 25-12 25l-15-23c0 0-6.73 14.58-20 36c-13.27 21.42-21 31-21 31l16 26h-50c0 0 23.69-27.53 34-43c10.31-15.47 16-26 16-26c0 0 58-82.56 58-189c0-106.44-58-157-58-157c0 0 20.47 28.46 27 43c6.53 14.54 13 37 13 37l-16-11c0 0 1.04 5.83 2 16c0.96 10.17 1 19 1 19l24 22c0 0 0 10.73 0 28c0 17.27-3 40-3 40l-26-27c0 0-1.84 13.35-6 29c-4.16 15.65-9 28-9 28l27 35c0 0-2.24 9.85-8 23c-5.76 13.15-12 23-12 23l-29-36c0 0-6.49 14.37-19 34c-12.51 19.63-22 32-22 32l29 39l-29 37l-31-40c0 0-0.76 3.15-16 20c-15.24 16.85-24 24-24 24h-16c0 0 45.43-40.19 71-76c25.57-35.81 49.48-60.05 76-141c26.52-80.95 9.33-149.41-6-180c-15.33-30.59-41-60-41-60l-11-4l12 24l18 7c0 0 7.96 11.76 16 30c8.04 18.24 13 39 13 39l-30-18l1 30l35 26c0 0 0 11.88 0 27c0 15.12-4 33-4 33l-37-30c0 0-0.17 7.45-6 27c-5.83 19.55-10 25-10 25l39 38c0 0-1.78 7.17-9 24c-7.22 16.83-11 20-11 20l-39-38c0 0-7.89 14.9-19 32c-11.11 17.1-20 28-20 28l38 43c0 0-6.5 9.34-13 18c-6.5 8.66-17 18-17 18l-37-42c0 0-5.7 8.7-27 30c-21.3 21.3-32 30-32 30l32 40h-52l-10-16l-21 16h-17c0 0 83.29-65.88 114-100c30.71-34.12 61.68-74.94 81-117c19.32-42.06 52.8-115.53 18-207c-34.8-91.47-111-107-111-107l12 12l15 1c0 0 16.16 9.04 30 21c13.84 11.96 24 28 24 28l-36-10l9 20l43 14c0 0 6.31 10.44 11 24c4.69 13.56 7 31 7 31l-48-22l1 27c0 0 14.68 6.13 27 13c12.32 6.87 24 14 24 14c0 0 0.48 10.46-1 27c-1.48 16.54-5 26-5 26c0 0-13.47-9.21-24-16c-10.53-6.79-27-16-27-16c0 0-2.4 9.06-6 23c-3.6 13.94-8 24-8 24c0 0 14.82 9.49 24 16c9.18 6.51 27 21 27 21c0 0-2.99 10.73-8 22c-5.01 11.27-11 21-11 21l-51-41c0 0-7.67 14.51-17 29c-9.33 14.49-19 26-19 26l49 48c0 0-3.73 6.53-11 16c-7.27 9.47-17 18-17 18l-48-49c0 0-7.97 11.97-26 30c-18.03 18.03-28 26-28 26c0 0 13.77 14.28 22 25c8.23 10.72 21 28 21 28l-30 24l-42-53c0 0-21.56 16.21-38 27c-16.44 10.79-41 23-41 23l19 33h-32l-11-20c0 0-5.8 2.88-28 11c-22.2 8.12-29 9-29 9v-9c0 0 136.66-31.47 255-183c118.34-151.53 87-260 32-315c-55-55-116-52-116-52c0 0 19.64 2.73 40 9c20.36 6.27 31 15 31 15l-30 1l10 11l42 1c0 0 7.57 4.57 18 15c10.43 10.43 16 22 16 22c0 0-10.4-1.28-27-4c-16.6-2.72-28-4-28-4l7 17c0 0 15.79 1.62 34 5c18.21 3.38 28 7 28 7c0 0 4.58 8.32 8 19c3.42 10.68 6 25 6 25c0 0-11.69-3.35-37-11c-25.31-7.65-32-9-32-9l1 23c0 0 20.93 4.9 35 10c14.07 5.1 36 15 36 15l-5 45c0 0-11.5-5.04-37-16c-25.5-10.96-35-14-35-14l-11 39c0 0 19.14 8.14 36 18c16.86 9.86 32 20 32 20l-17 38l-67-42c0 0-5.06 11.47-13 25c-7.94 13.53-15 22-15 22l60 49c0 0-1.07 4.44-10 16c-8.93 11.56-15 17-15 17l-58-53c0 0-4.52 7.71-22 26c-17.48 18.29-24 23-24 23l49 59l-27 23l-48-61c0 0-7.92 7.7-31 23c-23.08 15.3-36 21-36 21l37 67l-23 11l-34-67l-15 6v-11c0 0 31.77-12.51 63-34c31.23-21.49 50-38 50-38c0 0 135-113.03 135-244c0-130.97-125.09-140-149-140c-23.91 0-34 4-34 4c0 0 9.28-1 29-1c19.72 0 37 4 37 4l-21 8l11 5l30-8c0 0 8.45 2.46 20 8c11.55 5.54 16 11 16 11c0 0-9.28 1.27-21 3c-11.72 1.73-22 4-22 4l7 10c0 0 9.6-2.49 24-4c14.4-1.51 28-2 28-2c0 0 3.54 3.06 12 13c8.46 9.94 9 14 9 14c0 0-10.97 0-28 0c-17.03 0-32 1-32 1l4 13c0 0 15.09-0.61 42 1c26.91 1.61 23 2 23 2c0 0 1.31 1.84 5 16c3.69 14.16 2 18 2 18c0 0-7.66-1.33-37-5c-29.34-3.67-31-3-31-3l-1 18c0 0 17.72 0.69 40 5c22.28 4.31 30 7 30 7c0 0 0.01 12.56-1 23c-1.01 10.44-3 15-3 15c0 0-16.83-4.65-36-10c-19.17-5.35-36-9-36-9l-9 28c0 0 16.92 4.66 35 13c18.08 8.34 34 17 34 17l-14 32l-68-35c0 0-3.04 5.72-13 21c-9.96 15.28-12 16-12 16c0 0 16.38 9.16 29 18c12.62 8.84 36 26 36 26l-22 28l-61-49c0 0-6.07 7.07-18 19c-11.93 11.93-19 17-19 17l52 60c0 0-0.83 2.25-9 9c-8.17 6.75-14 10-14 10l-49-62c0 0-6.44 5.36-21 15c-14.56 9.64-22 12-22 12v-11z" />
</svg>