<svg version="1.2" xmlns="http://www.w3.org/2000/svg" viewBox="0 0 912 102" width="912" height="102"><style>.s0{fill:#07203f}.s1{fill:#ffffff}.s2{fill:#d2d2d2}</style><path class="s0" d="m1 73c0 0 94.8-26 232-26c137.2 0 196.6 13 317 13c120.4 0 185.4-14.4 231-24c45.6-9.6 131-36 131-36v98h-911z" /><path class="s1" d="m1 75c0 0 94.8-26 232-26c137.2 0 196.6 13 317 13c120.4 0 185.4-14.4 231-24c45.6-9.6 131-36 131-36v98h-911z" /><path class="s2" d="m1 77c0 0 94.8-26 232-26c137.2 0 196.6 13 317 13c120.4 0 185.4-14.4 231-24c45.6-9.6 131-36 131-36v98h-911z" /></svg>